<?xml version="1.0" encoding="iso-8859-1"?>
<!-- Generator: Adobe Illustrator 19.0.0, SVG Export Plug-In . SVG Version: 6.00 Build 0)  -->
<svg version="1.1" id="Capa_1" xmlns="http://www.w3.org/2000/svg" xmlns:xlink="http://www.w3.org/1999/xlink" x="0px" y="0px"
	 viewBox="0 0 512 512" style="enable-background:new 0 0 512 512;" xml:space="preserve">
<path style="fill:#E9EFF4;" d="M409.714,178.316c-5.669-17.648-13.962-31.92-23.804-43.459c-5.031-5.898-7.58-13.487-7.424-21.238
	c0.614-30.496-6.262-72.083-40.371-104.681c-1.678-1.604-4.241-1.871-6.19-0.611c-10.263,6.636-41.159,30.199-51.664,78.915
	c-14.613-1.052-33.961-1.052-48.575,0c-10.505-48.717-41.401-72.279-51.664-78.915c-1.949-1.26-4.512-0.993-6.19,0.611
	c-34.108,32.598-40.985,74.185-40.371,104.681c0.156,7.751-2.393,15.34-7.424,21.238c-9.842,11.539-18.136,25.811-23.804,43.459
	c0,0-111.875,329.756,153.741,326.136C521.588,508.071,409.714,178.316,409.714,178.316z"/>
<path style="fill:#D3DCE2;" d="M255.973,504.452c-5.914,0.08-11.627,0-17.17-0.251c243.514-10.645,136.562-325.888,136.562-325.888
	c-5.663-17.642-13.963-31.915-23.806-43.452c-5.032-5.904-7.578-13.492-7.417-21.24c0.531-26.633-4.641-61.715-28.678-91.897
	c6.826-6.746,12.89-11.096,16.459-13.401c1.955-1.253,4.511-0.992,6.195,0.612c34.11,32.607,40.987,74.185,40.365,104.687
	c-0.15,7.748,2.396,15.336,7.428,21.24c9.843,11.537,18.133,25.811,23.806,43.452C409.715,178.313,521.589,508.07,255.973,504.452z"
	/>
<path style="fill:#725151;" d="M258.944,378.421c10.233-1.353,19.069-10.694,24.51-18.88c2.757-4.15,7.094-9.445,6.858-14.738
	c-0.204-4.579-5.716-5.769-9.328-6.367c-7.267-1.201-14.826-1.963-22.306-2.007h-5.409c-7.48,0.044-15.039,0.806-22.306,2.007
	c-3.613,0.597-9.124,1.788-9.328,6.367c-0.236,5.292,4.101,10.588,6.858,14.738c5.187,7.804,12.58,14.733,21.525,17.92
	C253.073,378.55,256.064,378.802,258.944,378.421z"/>
<path style="fill:#633B3B;" d="M290.314,344.805c0.231,5.293-4.1,10.585-6.856,14.735c-5.443,8.189-14.284,17.531-24.518,18.884
	c-2.877,0.381-5.864,0.12-8.921-0.962c-2.506-0.892-4.892-2.075-7.137-3.488c9.763-1.854,18.163-10.816,23.405-18.704
	c2.757-4.15,7.087-9.442,6.856-14.735c-0.07-1.413-0.642-2.506-1.514-3.358c3.157,0.321,6.275,0.752,9.352,1.263
	C284.6,339.032,290.103,340.225,290.314,344.805z"/>
<path style="fill:#F47F45;" d="M78.906,315.767c1.173-72.16,23.325-137.454,23.325-137.454
	c5.673-17.662,13.973-31.945,23.826-43.482c5.032-5.894,7.558-13.472,7.407-21.21c-0.615-30.502,6.26-72.096,40.385-104.699
	c1.673-1.598,4.231-1.853,6.174-0.597c10.263,6.635,41.16,30.197,51.663,78.913c14.614-1.053,25.58-0.291,27.946-0.391
	C267.841,143.331,294.137,354.378,78.906,315.767z"/>
<path style="fill:#ED682E;" d="M78.906,315.767c0.08-4.942,0.261-9.853,0.531-14.705
	c168.748,15.226,164.417-143.989,156.298-214.075c12.57-0.661,21.751-0.05,23.896-0.14
	C267.841,143.331,294.133,354.378,78.906,315.767z"/>
<g>
	<path style="fill:#F9AC8A;" d="M160.904,99.555c0.378-10.014,2.408-33.593,12.937-47.439c1.734-2.281,5.022-2.689,7.214-0.843
		c6.037,5.085,17.577,17.323,23.594,40.233c0.597,2.272-0.49,4.646-2.581,5.719c-6.013,3.084-19.346,8.578-36.461,7.516
		C162.895,104.572,160.802,102.27,160.904,99.555z"/>
	<path style="fill:#F9AC8A;" d="M349.992,99.555c-0.378-10.014-2.408-33.593-12.937-47.439c-1.734-2.281-5.022-2.689-7.214-0.843
		c-6.037,5.085-17.577,17.323-23.594,40.233c-0.597,2.272,0.491,4.646,2.581,5.719c6.013,3.084,19.346,8.578,36.461,7.516
		C348,104.572,350.094,102.27,349.992,99.555z"/>
</g>
<g>
	<path style="fill:#F79B77;" d="M200.761,98.568c-2.797,1.433-7.177,3.388-12.78,4.962c0.722-0.331,1.363-0.652,1.945-0.952
		c2.095-1.072,3.178-3.448,2.586-5.713c-5.713-21.761-16.419-33.9-22.643-39.403c0.822-1.403,1.714-2.746,2.666-3.999
		c1.734-2.275,5.022-2.686,7.217-0.842c6.034,5.082,17.571,17.321,23.596,40.235C203.938,95.12,202.856,97.495,200.761,98.568z"/>
	<path style="fill:#F79B77;" d="M347.673,101.463c0.1,2.716-1.995,5.012-4.711,5.182c-3.869,0.241-7.538,0.15-10.976-0.19
		c2.185-0.602,3.749-2.636,3.659-4.992c-0.361-9.502-2.205-31.234-11.417-45.257c1.203-1.203,2.315-2.205,3.288-3.027
		c2.195-1.844,5.483-1.433,7.217,0.842C345.268,67.864,347.292,91.449,347.673,101.463z"/>
</g>
<polygon points="357.504,99.27 357.504,99.271 357.504,99.271 "/>
<path d="M225.399,429.064c-12.354,0-22.404-10.051-22.404-22.405c0-4.142-3.357-7.5-7.5-7.5s-7.5,3.358-7.5,7.5
	c0,20.625,16.779,37.405,37.404,37.405c12.39,0,23.386-6.06,30.197-15.366c6.811,9.306,17.807,15.366,30.197,15.366
	c20.625,0,37.404-16.78,37.404-37.405c0-4.142-3.357-7.5-7.5-7.5s-7.5,3.358-7.5,7.5c0,12.354-10.051,22.405-22.405,22.405
	s-22.404-10.051-22.404-22.405v-21.471c12.578-3.287,21.774-14.633,26.33-21.487c0.38-0.572,0.793-1.167,1.218-1.782
	c3.039-4.391,7.202-10.405,6.888-17.451c-0.324-7.264-5.577-11.789-15.613-13.448c-8.195-1.355-16.098-2.064-23.532-2.108h-5.454
	c-7.39,0.044-15.292,0.753-23.488,2.108c-10.035,1.66-15.288,6.185-15.612,13.451c-0.313,7.044,3.849,13.058,6.888,17.449
	c0.425,0.615,0.838,1.209,1.219,1.783c6.649,10.005,15.622,17.406,25.264,20.841c0.103,0.036,0.207,0.061,0.31,0.096v22.02
	C247.804,419.013,237.753,429.064,225.399,429.064z M234.753,355.381c-0.43-0.647-0.897-1.323-1.378-2.019
	c-1.388-2.005-3.349-4.838-4.007-6.899c0.595-0.179,1.487-0.39,2.82-0.61c7.418-1.226,14.525-1.867,21.081-1.906h5.364
	c6.601,0.039,13.708,0.681,21.125,1.906c1.333,0.221,2.226,0.432,2.821,0.61c-0.66,2.062-2.619,4.893-4.007,6.899
	c-0.482,0.696-0.948,1.371-1.377,2.017c-5.952,8.955-13.143,14.783-19.234,15.589c-1.848,0.245-3.621,0.051-5.421-0.589
	C245.935,368.026,239.617,362.699,234.753,355.381z"/>
<path d="M437.95,275.64c-6.074-54.642-20.253-97.18-21.098-99.682c-5.624-17.482-14.109-32.951-25.223-45.98
	c-3.75-4.397-5.749-10.153-5.628-16.208c0.627-31.091-6.271-75.458-42.691-110.267c-4.22-4.035-10.582-4.648-15.467-1.49
	c-9.642,6.235-40.998,29.7-53.432,77.346c-11.724-0.575-25.15-0.575-36.875,0c-12.43-47.649-43.789-71.113-53.432-77.348
	c-4.583-2.962-10.458-2.609-14.646,0.771c-0.282,0.227-0.556,0.467-0.822,0.721c-36.422,34.809-43.32,79.176-42.692,110.267
	c0.106,5.299-1.411,10.368-4.304,14.498c-0.407,0.58-0.841,1.141-1.302,1.681c-11.124,13.026-19.618,28.506-25.249,46.01
	c-1.181,3.494-22.532,67.656-23.702,139.686c-0.004,0.268,0.01,0.533,0.033,0.795c-0.358,25.467,1.812,52.395,8.673,77.634
	c1.089,4.007,5.218,6.371,9.227,5.282c4.007-1.089,6.371-5.22,5.282-9.227c-5.714-21.018-8.016-43.44-8.181-65.511
	c14.152,2.15,27.564,3.24,40.204,3.24c36.451,0,66.534-8.934,89.772-26.724c31.789-24.336,50.316-64.45,55.067-119.227
	c0.359-4.136-2.704-7.78-6.839-8.139c-4.131-0.349-7.78,2.703-8.139,6.84c-4.372,50.392-20.934,86.926-49.228,108.587
	c-28.308,21.672-68.864,28.477-120.625,20.255c2.339-67.57,22.435-127.88,22.719-128.721c0.013-0.037,0.026-0.076,0.038-0.115
	c5.012-15.602,12.536-29.356,22.366-40.878c0.388-0.455,0.764-0.918,1.128-1.389c5.409-6.972,8.273-15.735,8.096-24.878
	c-0.557-27.666,5.398-66.887,36.626-97.717c10.275,7.064,36.61,28.854,46.345,71.41c0.127,0.555,0.263,1.099,0.384,1.661
	c0.006,0.028,0.016,0.055,0.022,0.083c0.82,3.617,4.143,6.102,7.868,5.834c0.542-0.039,1.104-0.074,1.66-0.11
	c0.435-0.028,0.878-0.059,1.306-0.084c0.155-0.009,0.316-0.017,0.472-0.026c7.105-0.391,13.155-0.358,17.423-0.274
	c1.281,9.342,2.661,20.855,3.561,33.857c0.288,4.141,3.852,7.265,8.02,6.98c4.142-0.287,7.267-3.877,6.98-8.019
	c-0.868-12.527-2.162-23.672-3.4-32.902c4.029,0.128,7.905,0.32,11.473,0.577c3.751,0.269,7.1-2.253,7.889-5.913
	c9.417-43.667,36.325-65.921,46.731-73.075c31.231,30.832,37.186,70.053,36.629,97.716c-0.196,9.74,3.078,19.069,9.22,26.268
	c9.83,11.523,17.354,25.277,22.366,40.879c0.013,0.039,0.026,0.078,0.038,0.116c0.573,1.691,56.618,170.149-8.719,260.01
	c-27.134,37.319-72.074,56.223-133.63,56.223c-1.379,0-2.774-0.01-4.169-0.029c-0.068-0.001-0.137-0.001-0.206,0
	c-65.681,0.902-112.976-19.265-140.414-59.925c-2.323-3.442-6.997-4.35-10.437-2.026c-3.442,2.322-4.349,6.995-2.026,10.437
	c29.823,44.195,79.823,66.579,148.679,66.579c1.42,0,2.864-0.01,4.3-0.029c68.827,0.931,119.298-20.073,150.064-62.388
	c16.329-22.46,27.008-50.974,31.737-84.75C441.506,338.178,441.565,308.17,437.95,275.64z"/>
<path d="M185.898,45.523c-2.597-2.187-6.028-3.222-9.407-2.852c-3.407,0.377-6.554,2.161-8.634,4.895
	c-11.457,15.066-13.98,38.862-14.466,51.705c-0.254,6.736,5.017,12.555,11.75,12.973c1.64,0.101,3.245,0.149,4.819,0.149
	c16.398-0.001,29.118-5.186,35.54-8.48c5.199-2.667,7.899-8.689,6.419-14.316C205.419,64.842,192.826,51.358,185.898,45.523z
	 M168.532,97.341c1.177-21.553,6.65-33.355,9.777-38.439c5.538,5.267,13.629,15.384,18.522,32.518
	C191.046,94.127,181.053,97.637,168.532,97.341z"/>
<path d="M334.405,42.67c-3.375-0.37-6.81,0.665-9.408,2.853c-6.927,5.836-19.521,19.321-26.022,44.075
	c-1.476,5.629,1.224,11.649,6.422,14.315c6.421,3.293,19.139,8.479,35.538,8.479c1.573,0,3.18-0.048,4.819-0.149
	c6.733-0.418,12.005-6.237,11.75-12.973c-0.485-12.845-3.009-36.641-14.466-51.706C340.959,44.832,337.812,43.048,334.405,42.67z
	 M314.065,91.419c4.894-17.132,12.984-27.25,18.522-32.517c3.128,5.085,8.6,16.887,9.777,38.439
	C329.842,97.632,319.85,94.126,314.065,91.419z"/>
<circle cx="145.641" cy="361.32" r="6.909"/>
<circle cx="158.221" cy="392.38" r="6.909"/>
<circle cx="186.691" cy="380.78" r="6.909"/>
<circle cx="175.201" cy="353.62" r="6.909"/>
<circle cx="366.351" cy="361.32" r="6.909"/>
<circle cx="353.781" cy="392.38" r="6.909"/>
<circle cx="325.311" cy="380.78" r="6.909"/>
<circle cx="336.801" cy="353.62" r="6.909"/>
<circle cx="188.811" cy="263.1" r="15.982"/>
<circle cx="323.131" cy="263.1" r="15.982"/>
<g>
</g>
<g>
</g>
<g>
</g>
<g>
</g>
<g>
</g>
<g>
</g>
<g>
</g>
<g>
</g>
<g>
</g>
<g>
</g>
<g>
</g>
<g>
</g>
<g>
</g>
<g>
</g>
<g>
</g>
</svg>
